<?xml version="1.0" encoding="UTF-8"?>
<!DOCTYPE svg PUBLIC "-//W3C//DTD SVG 1.1//EN" "http://www.w3.org/Graphics/SVG/1.1/DTD/svg11.dtd">
<!-- Creator: CorelDRAW -->
<svg xmlns="http://www.w3.org/2000/svg" xml:space="preserve" width="6.82666in" height="6.82666in" style="shape-rendering:geometricPrecision; text-rendering:geometricPrecision; image-rendering:optimizeQuality; fill-rule:evenodd; clip-rule:evenodd"
viewBox="0 0 6.82666 6.82666"
 xmlns:xlink="http://www.w3.org/1999/xlink"
 version="1.1">
 <defs>
  <style type="text/css">
   <![CDATA[
    .fil4 {fill:none}
    .fil1 {fill:#465B65}
    .fil0 {fill:#556F7A}
    .fil3 {fill:#DDE3E7}
    .fil2 {fill:#EDEFF0}
   ]]>
  </style>
 </defs>
 <g id="Layer_x0020_1">
  <metadata id="CorelCorpID_0Corel-Layer"/>
  <g id="_623381416">
   <g id="Guides">
   </g>
   <g id="Layer_2">
   </g>
   <g id="Layer_3">
   </g>
   <g id="Layer_4">
   </g>
   <g id="Layer_5">
   </g>
   <g id="Layer_6">
   </g>
   <g id="Layer_7">
   </g>
   <g id="Layer_8">
   </g>
   <g id="Layer_9">
   </g>
   <g id="Layer_10">
   </g>
   <g id="Layer_11">
   </g>
   <g id="Layer_12">
   </g>
   <g id="Layer_13">
   </g>
   <g id="Layer_14">
   </g>
   <g id="Layer_15">
   </g>
   <g id="Layer_16">
   </g>
   <g id="Layer_17">
   </g>
   <g id="Layer_18">
    <g>
     <g>
      <g>
       <g>
        <path id="_601736208" class="fil0" d="M5.84756 4.96461l0 -0.298067 -0.252634 -0.0282008c-0.0199685,-0.104335 -0.0592992,-0.201768 -0.114067,-0.2885l0.162134 -0.202866 -0.210768 -0.210768 -0.200165 0.159969c-0.0846654,-0.0557992 -0.180067,-0.0966654 -0.282402,-0.118835l-0.0294331 -0.263866 -0.298063 0 -0.0294331 0.263866c-0.0989685,0.0214685 -0.191465,0.0603661 -0.274031,0.113366l-0.216067 -0.172701 -0.210768 0.210768 0.172768 0.216165c-0.0511654,0.0797992 -0.0891654,0.168866 -0.111,0.264098l-0.2845 0.0317323 0 0.298067 0.281268 0.0314016c0.0197677,0.0942008 0.0553661,0.182567 0.103835,0.262232l-0.180567 0.225933 0.210768 0.210768 0.219567 -0.1755c0.0785984,0.0527992 0.166598,0.0926654 0.261,0.116531l0.0314331 0.281701 0.298059 3.93701e-006 0.0301339 -0.270201c0.0994331,-0.0184016 0.192732,-0.0543346 0.276567,-0.104469l0.212835 0.170098 0.210768 -0.210768 -0.162866 -0.203768c0.0575315,-0.0833661 0.100366,-0.177665 0.124732,-0.279134l0.260898 -0.0290591z"/>
       </g>
      </g>
      <g>
       <g>
        <path id="_601735416" class="fil1" d="M5.84756 4.96461l0 -0.298067 -0.252634 -0.0282008c-0.0199685,-0.104335 -0.0592992,-0.201768 -0.114067,-0.2885l0.162134 -0.202866 -0.210768 -0.210768 -0.200165 0.159969c-0.0846654,-0.0557992 -0.180067,-0.0966654 -0.282402,-0.118835l-0.0294331 -0.263866 -0.149031 0 0 2.17846 0.123335 0 0.0301339 -0.270201c0.0994331,-0.0184016 0.192732,-0.0543346 0.276567,-0.104469l0.212835 0.170098 0.210768 -0.210768 -0.162835 -0.203768c0.0575315,-0.0833661 0.100366,-0.177665 0.124732,-0.279134l0.260831 -0.0290906z"/>
       </g>
      </g>
      <g>
       <g>
        <circle id="_601735152" class="fil2" cx="4.7712" cy="4.79705" r="0.439965"/>
       </g>
      </g>
      <g>
       <g>
        <path id="_601734888" class="fil3" d="M4.7712 4.35708l0 0.879933c0.243,0 0.439965,-0.196965 0.439965,-0.439965 3.93701e-006,-0.242969 -0.196996,-0.439969 -0.439965,-0.439969z"/>
       </g>
      </g>
     </g>
     <g>
      <g>
       <g>
        <path id="_601734864" class="fil0" d="M4.2393 2.80715l0 -0.446102 -0.378067 -0.0422008c-0.0299016,-0.156134 -0.0887323,-0.301965 -0.170701,-0.431732l0.242634 -0.303598 -0.315433 -0.315433 -0.299531 0.239402c-0.126732,-0.0835 -0.269465,-0.144665 -0.422634,-0.177866l-0.0440669 -0.394902 -0.446102 0 -0.0440669 0.394902c-0.148134,0.0320984 -0.286531,0.0903661 -0.410098,0.169701l-0.323366 -0.258433 -0.315433 0.315433 0.258531 0.3235c-0.0765669,0.119433 -0.133469,0.252732 -0.166098,0.395232l-0.425768 0.0474961 0 0.446098 0.420965 0.0469685c0.0295984,0.140969 0.0828346,0.273232 0.155402,0.392433l-0.270232 0.338098 0.315433 0.315433 0.328634 -0.262634c0.117598,0.0790315 0.249335,0.138665 0.390598,0.174366l0.0470315 0.421598 0.446102 3.93701e-006 0.0451339 -0.404366c0.148835,-0.0275315 0.288433,-0.0812992 0.413866,-0.156335l0.318531 0.254567 0.315433 -0.315433 -0.243701 -0.304933c0.0860984,-0.124768 0.150201,-0.265902 0.186701,-0.417768l0.390303 -0.0434961z"/>
       </g>
      </g>
      <g>
       <g>
        <path id="_601734168" class="fil1" d="M4.2393 2.80715l0 -0.446102 -0.378098 -0.0422008c-0.0299016,-0.156134 -0.0887323,-0.301965 -0.170701,-0.431732l0.242665 -0.303598 -0.315433 -0.315433 -0.299531 0.239402c-0.126732,-0.0835 -0.269465,-0.144665 -0.422634,-0.177866l-0.0440669 -0.394902 -0.223067 0 0 3.2602 0.184567 0 0.0451339 -0.404366c0.148835,-0.0275315 0.288433,-0.0812992 0.413866,-0.156335l0.318531 0.254567 0.315433 -0.315433 -0.243701 -0.304933c0.0860984,-0.124768 0.150201,-0.265902 0.186701,-0.417768l0.390335 -0.0434961z"/>
       </g>
      </g>
      <g>
       <g>
        <circle id="_601734216" class="fil2" cx="2.62843" cy="2.55638" r="0.658433"/>
       </g>
      </g>
      <g>
       <g>
        <path id="_623382064" class="fil3" d="M2.62843 1.89792l0 1.3169c0.363665,0 0.658433,-0.294799 0.658433,-0.658433 0,-0.363665 -0.294768,-0.658465 -0.658433,-0.658465z"/>
       </g>
      </g>
     </g>
    </g>
   </g>
   <g id="Layer_19">
   </g>
   <g id="Layer_20">
   </g>
   <g id="Layer_21">
   </g>
   <g id="Layer_22">
   </g>
   <g id="Layer_23">
   </g>
   <g id="Layer_24">
   </g>
   <g id="Layer_25">
   </g>
   <g id="Layer_26">
   </g>
  </g>
 </g>
 <rect class="fil4" width="6.82666" height="6.82666"/>
</svg>
